<?xml version="1.0" standalone="no"?><!DOCTYPE svg PUBLIC "-//W3C//DTD SVG 1.1//EN" "http://www.w3.org/Graphics/SVG/1.1/DTD/svg11.dtd"><svg t="1626615823715" class="icon" viewBox="0 0 1024 1024" version="1.1" xmlns="http://www.w3.org/2000/svg" p-id="1945" xmlns:xlink="http://www.w3.org/1999/xlink" width="200" height="200"><defs><style type="text/css"></style></defs><path d="M512.02048 192m-160 0a160 160 0 1 0 320 0 160 160 0 1 0-320 0Z" fill="#E0EBFE" p-id="1946"></path><path d="M977.71648 419.36L928.02048 444.224V416a32 32 0 1 0-64 0v60.224l-49.6 24.8c-41.408-72.96-106.016-129.536-183.2-158.784A191.616 191.616 0 0 0 704.02048 192c0-105.888-86.112-192-192-192s-192 86.112-192 192c0 60.832 28.512 115.04 72.8 150.24-77.184 29.248-141.76 85.856-183.2 158.784L160.02048 476.224V416a32 32 0 1 0-64 0v28.224l-49.696-24.864a32 32 0 0 0-28.608 57.28l165.184 82.56A381.792 381.792 0 0 0 160.02048 688.864C160.02048 883.072 308.05248 1024 512.02048 1024s352-140.96 352-335.168c0-45.664-8.32-89.216-22.88-129.6l165.184-82.592a32 32 0 1 0-28.608-57.28zM384.02048 192c0-70.592 57.408-128 128-128s128 57.408 128 128-57.408 128-128 128-128-57.408-128-128z m128 768c-169.568 0-288-111.488-288-271.168C224.02048 520.736 353.20448 384 512.02048 384s288 136.736 288 304.832C800.02048 848.512 681.58848 960 512.02048 960z" fill="#5465CF" p-id="1947"></path><path d="M512.02048 576m-32 0a32 32 0 1 0 64 0 32 32 0 1 0-64 0Z" fill="#5465CF" p-id="1948"></path><path d="M512.02048 704m-32 0a32 32 0 1 0 64 0 32 32 0 1 0-64 0Z" fill="#5465CF" p-id="1949"></path><path d="M512.02048 832m-32 0a32 32 0 1 0 64 0 32 32 0 1 0-64 0Z" fill="#5465CF" p-id="1950"></path></svg>